# xmcd CD database file
#
# Track frame offsets:
#	150
#	14572
#	29241
#	45151
#	58709
#	72554
#	84321
#	106221
#	118200
#	134082
#	147237
#	163416
#	178723
#	188362
#	207741
#	223135
#	237752
#	250244
#	263694
#	285491
#
# Disc length: 4060 seconds
#
# Revision: 0
# Processed by: cddbd v1.5.2PL0 Copyright (c) Steve Scherf et al.
# Submitted via: CDex 1.50
#
DISCID=370fda14
DTITLE=Lake City Stompers - The Greatest Hits CD1
DYEAR=1900
DGENRE=Jazz
TTITLE0=Puttin' on the ritz
TTITLE1=Beale street blues
TTITLE2=Wabash blues
TTITLE3=Shine
TTITLE4=Careless love
TTITLE5=Jambalaya
TTITLE6=Halle Hallelujah
TTITLE7=When the Saints
TTITLE8=Just as I am
TTITLE9=Harlem rag
TTITLE10=When you grow too old to dream
TTITLE11=Canal Street blues
TTITLE12=Brand's hatch
TTITLE13=Black and blue
TTITLE14=Muskrat ramble
TTITLE15=Steamboat Stomp
TTITLE16=All the way
TTITLE17=Martinique
TTITLE18=Sweet Georgia Brown
TTITLE19=Ain't misbehavin'
EXTD=
EXTT0=
EXTT1=
EXTT2=
EXTT3=
EXTT4=
EXTT5=
EXTT6=
EXTT7=
EXTT8=
EXTT9=
EXTT10=
EXTT11=
EXTT12=
EXTT13=
EXTT14=
EXTT15=
EXTT16=
EXTT17=
EXTT18=
EXTT19=
PLAYORDER=
